<?xml version="1.0" encoding="UTF-8" standalone="no"?>
<!DOCTYPE svg PUBLIC "-//W3C//DTD SVG 1.1//EN"
 "http://www.w3.org/Graphics/SVG/1.1/DTD/svg11.dtd">
<!-- Generated by graphviz version 2.38.0 (20140413.2041)
 -->
<!-- Title: controllers_diagram Pages: 1 -->
<svg width="618pt" height="510pt"
 viewBox="0.00 0.00 617.50 510.00" xmlns="http://www.w3.org/2000/svg" xmlns:xlink="http://www.w3.org/1999/xlink">
<g id="graph0" class="graph" transform="scale(1 1) rotate(0) translate(241.5 268)">
<title>controllers_diagram</title>
<polygon fill="none" stroke="none" points="-241.5,242 -241.5,-268 376,-268 376,242 -241.5,242"/>
<!-- _diagram_info -->
<g id="node1" class="node"><title>_diagram_info</title>
<text text-anchor="start" x="-145" y="-216.6" font-family="Times,serif" font-size="13.00">Controllers diagram</text>
<text text-anchor="start" x="-145" y="-202.6" font-family="Times,serif" font-size="13.00">Date: Apr 12 2019 &#45; 00:20</text>
<text text-anchor="start" x="-145" y="-188.6" font-family="Times,serif" font-size="13.00">Migration version: 20190411230423</text>
<text text-anchor="start" x="-145" y="-174.6" font-family="Times,serif" font-size="13.00">Generated by RailRoady 1.5.3</text>
<text text-anchor="start" x="-145" y="-160.6" font-family="Times,serif" font-size="13.00">http://railroady.prestonlee.com</text>
</g>
<!-- AccountActivationsController -->
<g id="node2" class="node"><title>AccountActivationsController</title>
<path fill="none" stroke="black" d="M182,-170.5C182,-170.5 338,-170.5 338,-170.5 344,-170.5 350,-176.5 350,-182.5 350,-182.5 350,-251.5 350,-251.5 350,-257.5 344,-263.5 338,-263.5 338,-263.5 182,-263.5 182,-263.5 176,-263.5 170,-257.5 170,-251.5 170,-251.5 170,-182.5 170,-182.5 170,-176.5 176,-170.5 182,-170.5"/>
<text text-anchor="middle" x="260" y="-248.3" font-family="Times,serif" font-size="14.00">AccountActivationsController</text>
<polyline fill="none" stroke="black" points="170,-240.5 350,-240.5 "/>
<text text-anchor="start" x="178" y="-225.3" font-family="Times,serif" font-size="14.00">edit</text>
<polyline fill="none" stroke="black" points="170,-217.5 350,-217.5 "/>
<polyline fill="none" stroke="black" points="170,-193.5 350,-193.5 "/>
<text text-anchor="start" x="178" y="-178.3" font-family="Times,serif" font-size="14.00">_layout</text>
</g>
<!-- StaticPagesController -->
<g id="node3" class="node"><title>StaticPagesController</title>
<path fill="none" stroke="black" d="M250,237C250,237 360,237 360,237 366,237 372,231 372,225 372,225 372,111 372,111 372,105 366,99 360,99 360,99 250,99 250,99 244,99 238,105 238,111 238,111 238,225 238,225 238,231 244,237 250,237"/>
<text text-anchor="middle" x="305" y="114.2" font-family="Times,serif" font-size="14.00">StaticPagesController</text>
<polyline fill="none" stroke="black" points="238,122 372,122 "/>
<text text-anchor="start" x="246" y="137.2" font-family="Times,serif" font-size="14.00">about</text>
<text text-anchor="start" x="246" y="152.2" font-family="Times,serif" font-size="14.00">contact</text>
<text text-anchor="start" x="246" y="167.2" font-family="Times,serif" font-size="14.00">help</text>
<text text-anchor="start" x="246" y="182.2" font-family="Times,serif" font-size="14.00">home</text>
<polyline fill="none" stroke="black" points="238,190 372,190 "/>
<polyline fill="none" stroke="black" points="238,214 372,214 "/>
<text text-anchor="start" x="246" y="229.2" font-family="Times,serif" font-size="14.00">_layout</text>
</g>
<!-- ApplicationController -->
<g id="node4" class="node"><title>ApplicationController</title>
<path fill="none" stroke="black" d="M12,237.5C12,237.5 124,237.5 124,237.5 130,237.5 136,231.5 136,225.5 136,225.5 136,156.5 136,156.5 136,150.5 130,144.5 124,144.5 124,144.5 12,144.5 12,144.5 6,144.5 0,150.5 0,156.5 0,156.5 0,225.5 0,225.5 0,231.5 6,237.5 12,237.5"/>
<text text-anchor="middle" x="68" y="159.7" font-family="Times,serif" font-size="14.00">ApplicationController</text>
<polyline fill="none" stroke="black" points="0,167.5 136,167.5 "/>
<text text-anchor="start" x="8" y="182.7" font-family="Times,serif" font-size="14.00">hello</text>
<polyline fill="none" stroke="black" points="0,190.5 136,190.5 "/>
<polyline fill="none" stroke="black" points="0,214.5 136,214.5 "/>
<text text-anchor="start" x="8" y="229.7" font-family="Times,serif" font-size="14.00">_layout</text>
</g>
<!-- SessionsController -->
<g id="node5" class="node"><title>SessionsController</title>
<path fill="none" stroke="black" d="M-225.5,-0.5C-225.5,-0.5 -130.5,-0.5 -130.5,-0.5 -124.5,-0.5 -118.5,-6.5 -118.5,-12.5 -118.5,-12.5 -118.5,-111.5 -118.5,-111.5 -118.5,-117.5 -124.5,-123.5 -130.5,-123.5 -130.5,-123.5 -225.5,-123.5 -225.5,-123.5 -231.5,-123.5 -237.5,-117.5 -237.5,-111.5 -237.5,-111.5 -237.5,-12.5 -237.5,-12.5 -237.5,-6.5 -231.5,-0.5 -225.5,-0.5"/>
<text text-anchor="middle" x="-178" y="-108.3" font-family="Times,serif" font-size="14.00">SessionsController</text>
<polyline fill="none" stroke="black" points="-237.5,-100.5 -118.5,-100.5 "/>
<text text-anchor="start" x="-229.5" y="-85.3" font-family="Times,serif" font-size="14.00">create</text>
<text text-anchor="start" x="-229.5" y="-70.3" font-family="Times,serif" font-size="14.00">destroy</text>
<text text-anchor="start" x="-229.5" y="-55.3" font-family="Times,serif" font-size="14.00">new</text>
<polyline fill="none" stroke="black" points="-237.5,-47.5 -118.5,-47.5 "/>
<polyline fill="none" stroke="black" points="-237.5,-23.5 -118.5,-23.5 "/>
<text text-anchor="start" x="-229.5" y="-8.3" font-family="Times,serif" font-size="14.00">_layout</text>
</g>
<!-- UsersController -->
<g id="node6" class="node"><title>UsersController</title>
<path fill="none" stroke="black" d="M114.5,101.5C114.5,101.5 193.5,101.5 193.5,101.5 199.5,101.5 205.5,95.5 205.5,89.5 205.5,89.5 205.5,-129.5 205.5,-129.5 205.5,-135.5 199.5,-141.5 193.5,-141.5 193.5,-141.5 114.5,-141.5 114.5,-141.5 108.5,-141.5 102.5,-135.5 102.5,-129.5 102.5,-129.5 102.5,89.5 102.5,89.5 102.5,95.5 108.5,101.5 114.5,101.5"/>
<text text-anchor="middle" x="154" y="-126.3" font-family="Times,serif" font-size="14.00">UsersController</text>
<polyline fill="none" stroke="black" points="102.5,-118.5 205.5,-118.5 "/>
<text text-anchor="start" x="110.5" y="-103.3" font-family="Times,serif" font-size="14.00">create</text>
<text text-anchor="start" x="110.5" y="-88.3" font-family="Times,serif" font-size="14.00">destroy</text>
<text text-anchor="start" x="110.5" y="-73.3" font-family="Times,serif" font-size="14.00">edit</text>
<text text-anchor="start" x="110.5" y="-58.3" font-family="Times,serif" font-size="14.00">index</text>
<text text-anchor="start" x="110.5" y="-43.3" font-family="Times,serif" font-size="14.00">new</text>
<text text-anchor="start" x="110.5" y="-28.3" font-family="Times,serif" font-size="14.00">show</text>
<text text-anchor="start" x="110.5" y="-13.3" font-family="Times,serif" font-size="14.00">update</text>
<polyline fill="none" stroke="black" points="102.5,-5.5 205.5,-5.5 "/>
<polyline fill="none" stroke="black" points="102.5,18.5 205.5,18.5 "/>
<text text-anchor="start" x="110.5" y="33.7" font-family="Times,serif" font-size="14.00">_layout</text>
<text text-anchor="start" x="110.5" y="48.7" font-family="Times,serif" font-size="14.00">admin_user</text>
<text text-anchor="start" x="110.5" y="63.7" font-family="Times,serif" font-size="14.00">correct_user</text>
<text text-anchor="start" x="110.5" y="78.7" font-family="Times,serif" font-size="14.00">logged_in_user</text>
<text text-anchor="start" x="110.5" y="93.7" font-family="Times,serif" font-size="14.00">user_params</text>
</g>
<!-- PasswordResetsController -->
<g id="node7" class="node"><title>PasswordResetsController</title>
<path fill="none" stroke="black" d="M-72.5,101C-72.5,101 62.5,101 62.5,101 68.5,101 74.5,95 74.5,89 74.5,89 74.5,-85 74.5,-85 74.5,-91 68.5,-97 62.5,-97 62.5,-97 -72.5,-97 -72.5,-97 -78.5,-97 -84.5,-91 -84.5,-85 -84.5,-85 -84.5,89 -84.5,89 -84.5,95 -78.5,101 -72.5,101"/>
<text text-anchor="middle" x="-5" y="-81.8" font-family="Times,serif" font-size="14.00">PasswordResetsController</text>
<polyline fill="none" stroke="black" points="-84.5,-74 74.5,-74 "/>
<text text-anchor="start" x="-76.5" y="-58.8" font-family="Times,serif" font-size="14.00">create</text>
<text text-anchor="start" x="-76.5" y="-43.8" font-family="Times,serif" font-size="14.00">edit</text>
<text text-anchor="start" x="-76.5" y="-28.8" font-family="Times,serif" font-size="14.00">new</text>
<text text-anchor="start" x="-76.5" y="-13.8" font-family="Times,serif" font-size="14.00">update</text>
<polyline fill="none" stroke="black" points="-84.5,-6 74.5,-6 "/>
<polyline fill="none" stroke="black" points="-84.5,18 74.5,18 "/>
<text text-anchor="start" x="-76.5" y="33.2" font-family="Times,serif" font-size="14.00">_layout</text>
<text text-anchor="start" x="-76.5" y="48.2" font-family="Times,serif" font-size="14.00">check_expiration</text>
<text text-anchor="start" x="-76.5" y="63.2" font-family="Times,serif" font-size="14.00">get_user</text>
<text text-anchor="start" x="-76.5" y="78.2" font-family="Times,serif" font-size="14.00">user_params</text>
<text text-anchor="start" x="-76.5" y="93.2" font-family="Times,serif" font-size="14.00">valid_user</text>
</g>
</g>
</svg>
