<?xml version="1.0" encoding="UTF-8" standalone="no"?>
<!DOCTYPE svg PUBLIC "-//W3C//DTD SVG 1.1//EN"
 "http://www.w3.org/Graphics/SVG/1.1/DTD/svg11.dtd">
<!-- Generated by graphviz version 2.38.0 (20140413.2041)
 -->
<!-- Title: models_diagram Pages: 1 -->
<svg width="1351pt" height="318pt"
 viewBox="0.00 0.00 1350.50 318.00" xmlns="http://www.w3.org/2000/svg" xmlns:xlink="http://www.w3.org/1999/xlink">
<g id="graph0" class="graph" transform="scale(1 1) rotate(0) translate(4 314)">
<title>models_diagram</title>
<polygon fill="none" stroke="none" points="-4,4 -4,-314 1346.5,-314 1346.5,4 -4,4"/>
<!-- _diagram_info -->
<g id="node1" class="node"><title>_diagram_info</title>
<text text-anchor="start" x="8" y="-251.1" font-family="Times,serif" font-size="13.00">Models diagram</text>
<text text-anchor="start" x="8" y="-237.1" font-family="Times,serif" font-size="13.00">Date: Apr 12 2019 &#45; 00:20</text>
<text text-anchor="start" x="8" y="-223.1" font-family="Times,serif" font-size="13.00">Migration version: 20190411230423</text>
<text text-anchor="start" x="8" y="-209.1" font-family="Times,serif" font-size="13.00">Generated by RailRoady 1.5.3</text>
<text text-anchor="start" x="8" y="-195.1" font-family="Times,serif" font-size="13.00">http://railroady.prestonlee.com</text>
</g>
<!-- Unfollow -->
<g id="node2" class="node"><title>Unfollow</title>
<path fill="none" stroke="black" d="M244,-151C244,-151 372,-151 372,-151 378,-151 384,-157 384,-163 384,-163 384,-290 384,-290 384,-296 378,-302 372,-302 372,-302 244,-302 244,-302 238,-302 232,-296 232,-290 232,-290 232,-163 232,-163 232,-157 238,-151 244,-151"/>
<text text-anchor="middle" x="308" y="-286.8" font-family="Times,serif" font-size="14.00">Unfollow</text>
<polyline fill="none" stroke="black" points="232,-279 384,-279 "/>
<text text-anchor="start" x="240" y="-263.8" font-family="Times,serif" font-size="14.00">id :INTEGER</text>
<text text-anchor="start" x="240" y="-248.8" font-family="Times,serif" font-size="14.00">name :varchar</text>
<text text-anchor="start" x="240" y="-233.8" font-family="Times,serif" font-size="14.00">profile_image :varchar</text>
<text text-anchor="start" x="240" y="-218.8" font-family="Times,serif" font-size="14.00">profile_url :varchar</text>
<text text-anchor="start" x="240" y="-203.8" font-family="Times,serif" font-size="14.00">user_id :integer</text>
<text text-anchor="start" x="240" y="-188.8" font-family="Times,serif" font-size="14.00">unfollow_time :datetime</text>
<text text-anchor="start" x="240" y="-173.8" font-family="Times,serif" font-size="14.00">created_at :datetime</text>
<text text-anchor="start" x="240" y="-158.8" font-family="Times,serif" font-size="14.00">updated_at :datetime</text>
</g>
<!-- HashtagMessage -->
<g id="node3" class="node"><title>HashtagMessage</title>
<path fill="none" stroke="black" d="M419.5,-0.5C419.5,-0.5 526.5,-0.5 526.5,-0.5 532.5,-0.5 538.5,-6.5 538.5,-12.5 538.5,-12.5 538.5,-94.5 538.5,-94.5 538.5,-100.5 532.5,-106.5 526.5,-106.5 526.5,-106.5 419.5,-106.5 419.5,-106.5 413.5,-106.5 407.5,-100.5 407.5,-94.5 407.5,-94.5 407.5,-12.5 407.5,-12.5 407.5,-6.5 413.5,-0.5 419.5,-0.5"/>
<text text-anchor="middle" x="473" y="-91.3" font-family="Times,serif" font-size="14.00">HashtagMessage</text>
<polyline fill="none" stroke="black" points="407.5,-83.5 538.5,-83.5 "/>
<text text-anchor="start" x="415.5" y="-68.3" font-family="Times,serif" font-size="14.00">id :INTEGER</text>
<text text-anchor="start" x="415.5" y="-53.3" font-family="Times,serif" font-size="14.00">content :varchar</text>
<text text-anchor="start" x="415.5" y="-38.3" font-family="Times,serif" font-size="14.00">message_id :integer</text>
<text text-anchor="start" x="415.5" y="-23.3" font-family="Times,serif" font-size="14.00">created_at :datetime</text>
<text text-anchor="start" x="415.5" y="-8.3" font-family="Times,serif" font-size="14.00">updated_at :datetime</text>
</g>
<!-- ApplicationRecord -->
<g id="node4" class="node"><title>ApplicationRecord</title>
<ellipse fill="none" stroke="black" cx="639" cy="-226.5" rx="77.1866" ry="18"/>
<text text-anchor="middle" x="639" y="-222.8" font-family="Times,serif" font-size="14.00">ApplicationRecord</text>
</g>
<!-- Comment -->
<g id="node5" class="node"><title>Comment</title>
<path fill="none" stroke="black" d="M746.5,-151C746.5,-151 863.5,-151 863.5,-151 869.5,-151 875.5,-157 875.5,-163 875.5,-163 875.5,-290 875.5,-290 875.5,-296 869.5,-302 863.5,-302 863.5,-302 746.5,-302 746.5,-302 740.5,-302 734.5,-296 734.5,-290 734.5,-290 734.5,-163 734.5,-163 734.5,-157 740.5,-151 746.5,-151"/>
<text text-anchor="middle" x="805" y="-286.8" font-family="Times,serif" font-size="14.00">Comment</text>
<polyline fill="none" stroke="black" points="734.5,-279 875.5,-279 "/>
<text text-anchor="start" x="742.5" y="-263.8" font-family="Times,serif" font-size="14.00">id :INTEGER</text>
<text text-anchor="start" x="742.5" y="-248.8" font-family="Times,serif" font-size="14.00">name :varchar</text>
<text text-anchor="start" x="742.5" y="-233.8" font-family="Times,serif" font-size="14.00">profile_image :varchar</text>
<text text-anchor="start" x="742.5" y="-218.8" font-family="Times,serif" font-size="14.00">profile_url :varchar</text>
<text text-anchor="start" x="742.5" y="-203.8" font-family="Times,serif" font-size="14.00">user_id :integer</text>
<text text-anchor="start" x="742.5" y="-188.8" font-family="Times,serif" font-size="14.00">content :varchar</text>
<text text-anchor="start" x="742.5" y="-173.8" font-family="Times,serif" font-size="14.00">created_at :datetime</text>
<text text-anchor="start" x="742.5" y="-158.8" font-family="Times,serif" font-size="14.00">updated_at :datetime</text>
</g>
<!-- HashtagFollow -->
<g id="node6" class="node"><title>HashtagFollow</title>
<path fill="none" stroke="black" d="M830.5,-0.5C830.5,-0.5 937.5,-0.5 937.5,-0.5 943.5,-0.5 949.5,-6.5 949.5,-12.5 949.5,-12.5 949.5,-94.5 949.5,-94.5 949.5,-100.5 943.5,-106.5 937.5,-106.5 937.5,-106.5 830.5,-106.5 830.5,-106.5 824.5,-106.5 818.5,-100.5 818.5,-94.5 818.5,-94.5 818.5,-12.5 818.5,-12.5 818.5,-6.5 824.5,-0.5 830.5,-0.5"/>
<text text-anchor="middle" x="884" y="-91.3" font-family="Times,serif" font-size="14.00">HashtagFollow</text>
<polyline fill="none" stroke="black" points="818.5,-83.5 949.5,-83.5 "/>
<text text-anchor="start" x="826.5" y="-68.3" font-family="Times,serif" font-size="14.00">id :INTEGER</text>
<text text-anchor="start" x="826.5" y="-53.3" font-family="Times,serif" font-size="14.00">content :varchar</text>
<text text-anchor="start" x="826.5" y="-38.3" font-family="Times,serif" font-size="14.00">follow_id :integer</text>
<text text-anchor="start" x="826.5" y="-23.3" font-family="Times,serif" font-size="14.00">created_at :datetime</text>
<text text-anchor="start" x="826.5" y="-8.3" font-family="Times,serif" font-size="14.00">updated_at :datetime</text>
</g>
<!-- Comment&#45;&gt;HashtagFollow -->
<g id="edge1" class="edge"><title>Comment&#45;&gt;HashtagFollow</title>
<path fill="none" stroke="#6db975" d="M842.831,-143.612C847.142,-134.282 851.479,-124.893 855.637,-115.893"/>
<ellipse fill="none" stroke="#6db975" cx="841.098" cy="-147.363" rx="4.00002" ry="4.00002"/>
<polygon fill="#6db975" stroke="#6db975" points="855.703,-115.751 863.982,-108.56 857.8,-111.212 859.897,-106.673 859.897,-106.673 859.897,-106.673 857.8,-111.212 855.812,-104.786 855.703,-115.751 855.703,-115.751"/>
</g>
<!-- Message -->
<g id="node7" class="node"><title>Message</title>
<path fill="none" stroke="black" d="M414.5,-151C414.5,-151 531.5,-151 531.5,-151 537.5,-151 543.5,-157 543.5,-163 543.5,-163 543.5,-290 543.5,-290 543.5,-296 537.5,-302 531.5,-302 531.5,-302 414.5,-302 414.5,-302 408.5,-302 402.5,-296 402.5,-290 402.5,-290 402.5,-163 402.5,-163 402.5,-157 408.5,-151 414.5,-151"/>
<text text-anchor="middle" x="473" y="-286.8" font-family="Times,serif" font-size="14.00">Message</text>
<polyline fill="none" stroke="black" points="402.5,-279 543.5,-279 "/>
<text text-anchor="start" x="410.5" y="-263.8" font-family="Times,serif" font-size="14.00">id :INTEGER</text>
<text text-anchor="start" x="410.5" y="-248.8" font-family="Times,serif" font-size="14.00">name :varchar</text>
<text text-anchor="start" x="410.5" y="-233.8" font-family="Times,serif" font-size="14.00">profile_image :varchar</text>
<text text-anchor="start" x="410.5" y="-218.8" font-family="Times,serif" font-size="14.00">profile_url :varchar</text>
<text text-anchor="start" x="410.5" y="-203.8" font-family="Times,serif" font-size="14.00">user_id :integer</text>
<text text-anchor="start" x="410.5" y="-188.8" font-family="Times,serif" font-size="14.00">content :varchar</text>
<text text-anchor="start" x="410.5" y="-173.8" font-family="Times,serif" font-size="14.00">created_at :datetime</text>
<text text-anchor="start" x="410.5" y="-158.8" font-family="Times,serif" font-size="14.00">updated_at :datetime</text>
</g>
<!-- Message&#45;&gt;HashtagMessage -->
<g id="edge2" class="edge"><title>Message&#45;&gt;HashtagMessage</title>
<path fill="none" stroke="#c1c0bc" d="M473,-142.907C473,-134.134 473,-125.32 473,-116.835"/>
<ellipse fill="none" stroke="#c1c0bc" cx="473" cy="-146.994" rx="4" ry="4"/>
<polygon fill="#c1c0bc" stroke="#c1c0bc" points="473,-116.673 477.5,-106.673 473,-111.673 473,-106.673 473,-106.673 473,-106.673 473,-111.673 468.5,-106.673 473,-116.673 473,-116.673"/>
</g>
<!-- HashtagComment -->
<g id="node8" class="node"><title>HashtagComment</title>
<path fill="none" stroke="black" d="M1064.5,-173.5C1064.5,-173.5 1171.5,-173.5 1171.5,-173.5 1177.5,-173.5 1183.5,-179.5 1183.5,-185.5 1183.5,-185.5 1183.5,-267.5 1183.5,-267.5 1183.5,-273.5 1177.5,-279.5 1171.5,-279.5 1171.5,-279.5 1064.5,-279.5 1064.5,-279.5 1058.5,-279.5 1052.5,-273.5 1052.5,-267.5 1052.5,-267.5 1052.5,-185.5 1052.5,-185.5 1052.5,-179.5 1058.5,-173.5 1064.5,-173.5"/>
<text text-anchor="middle" x="1118" y="-264.3" font-family="Times,serif" font-size="14.00">HashtagComment</text>
<polyline fill="none" stroke="black" points="1052.5,-256.5 1183.5,-256.5 "/>
<text text-anchor="start" x="1060.5" y="-241.3" font-family="Times,serif" font-size="14.00">id :INTEGER</text>
<text text-anchor="start" x="1060.5" y="-226.3" font-family="Times,serif" font-size="14.00">content :varchar</text>
<text text-anchor="start" x="1060.5" y="-211.3" font-family="Times,serif" font-size="14.00">comment_id :integer</text>
<text text-anchor="start" x="1060.5" y="-196.3" font-family="Times,serif" font-size="14.00">created_at :datetime</text>
<text text-anchor="start" x="1060.5" y="-181.3" font-family="Times,serif" font-size="14.00">updated_at :datetime</text>
</g>
<!-- Like -->
<g id="node9" class="node"><title>Like</title>
<path fill="none" stroke="black" d="M1213.5,-143.5C1213.5,-143.5 1330.5,-143.5 1330.5,-143.5 1336.5,-143.5 1342.5,-149.5 1342.5,-155.5 1342.5,-155.5 1342.5,-297.5 1342.5,-297.5 1342.5,-303.5 1336.5,-309.5 1330.5,-309.5 1330.5,-309.5 1213.5,-309.5 1213.5,-309.5 1207.5,-309.5 1201.5,-303.5 1201.5,-297.5 1201.5,-297.5 1201.5,-155.5 1201.5,-155.5 1201.5,-149.5 1207.5,-143.5 1213.5,-143.5"/>
<text text-anchor="middle" x="1272" y="-294.3" font-family="Times,serif" font-size="14.00">Like</text>
<polyline fill="none" stroke="black" points="1201.5,-286.5 1342.5,-286.5 "/>
<text text-anchor="start" x="1209.5" y="-271.3" font-family="Times,serif" font-size="14.00">id :INTEGER</text>
<text text-anchor="start" x="1209.5" y="-256.3" font-family="Times,serif" font-size="14.00">name :varchar</text>
<text text-anchor="start" x="1209.5" y="-241.3" font-family="Times,serif" font-size="14.00">profile_image :varchar</text>
<text text-anchor="start" x="1209.5" y="-226.3" font-family="Times,serif" font-size="14.00">profile_url :varchar</text>
<text text-anchor="start" x="1209.5" y="-211.3" font-family="Times,serif" font-size="14.00">user_id :integer</text>
<text text-anchor="start" x="1209.5" y="-196.3" font-family="Times,serif" font-size="14.00">maximum :integer</text>
<text text-anchor="start" x="1209.5" y="-181.3" font-family="Times,serif" font-size="14.00">minimum :integer</text>
<text text-anchor="start" x="1209.5" y="-166.3" font-family="Times,serif" font-size="14.00">created_at :datetime</text>
<text text-anchor="start" x="1209.5" y="-151.3" font-family="Times,serif" font-size="14.00">updated_at :datetime</text>
</g>
<!-- HashtagLike -->
<g id="node11" class="node"><title>HashtagLike</title>
<path fill="none" stroke="black" d="M1218.5,-0.5C1218.5,-0.5 1325.5,-0.5 1325.5,-0.5 1331.5,-0.5 1337.5,-6.5 1337.5,-12.5 1337.5,-12.5 1337.5,-94.5 1337.5,-94.5 1337.5,-100.5 1331.5,-106.5 1325.5,-106.5 1325.5,-106.5 1218.5,-106.5 1218.5,-106.5 1212.5,-106.5 1206.5,-100.5 1206.5,-94.5 1206.5,-94.5 1206.5,-12.5 1206.5,-12.5 1206.5,-6.5 1212.5,-0.5 1218.5,-0.5"/>
<text text-anchor="middle" x="1272" y="-91.3" font-family="Times,serif" font-size="14.00">HashtagLike</text>
<polyline fill="none" stroke="black" points="1206.5,-83.5 1337.5,-83.5 "/>
<text text-anchor="start" x="1214.5" y="-68.3" font-family="Times,serif" font-size="14.00">id :INTEGER</text>
<text text-anchor="start" x="1214.5" y="-53.3" font-family="Times,serif" font-size="14.00">content :varchar</text>
<text text-anchor="start" x="1214.5" y="-38.3" font-family="Times,serif" font-size="14.00">like_id :integer</text>
<text text-anchor="start" x="1214.5" y="-23.3" font-family="Times,serif" font-size="14.00">created_at :datetime</text>
<text text-anchor="start" x="1214.5" y="-8.3" font-family="Times,serif" font-size="14.00">updated_at :datetime</text>
</g>
<!-- Like&#45;&gt;HashtagLike -->
<g id="edge3" class="edge"><title>Like&#45;&gt;HashtagLike</title>
<path fill="none" stroke="#93f9f3" d="M1272,-135.056C1272,-128.961 1272,-122.9 1272,-116.998"/>
<ellipse fill="none" stroke="#93f9f3" cx="1272" cy="-139.256" rx="4" ry="4"/>
<polygon fill="#93f9f3" stroke="#93f9f3" points="1272,-116.57 1276.5,-106.57 1272,-111.57 1272,-106.57 1272,-106.57 1272,-106.57 1272,-111.57 1267.5,-106.57 1272,-116.57 1272,-116.57"/>
</g>
<!-- Follow -->
<g id="node10" class="node"><title>Follow</title>
<path fill="none" stroke="black" d="M905.5,-158.5C905.5,-158.5 1022.5,-158.5 1022.5,-158.5 1028.5,-158.5 1034.5,-164.5 1034.5,-170.5 1034.5,-170.5 1034.5,-282.5 1034.5,-282.5 1034.5,-288.5 1028.5,-294.5 1022.5,-294.5 1022.5,-294.5 905.5,-294.5 905.5,-294.5 899.5,-294.5 893.5,-288.5 893.5,-282.5 893.5,-282.5 893.5,-170.5 893.5,-170.5 893.5,-164.5 899.5,-158.5 905.5,-158.5"/>
<text text-anchor="middle" x="964" y="-279.3" font-family="Times,serif" font-size="14.00">Follow</text>
<polyline fill="none" stroke="black" points="893.5,-271.5 1034.5,-271.5 "/>
<text text-anchor="start" x="901.5" y="-256.3" font-family="Times,serif" font-size="14.00">id :INTEGER</text>
<text text-anchor="start" x="901.5" y="-241.3" font-family="Times,serif" font-size="14.00">name :varchar</text>
<text text-anchor="start" x="901.5" y="-226.3" font-family="Times,serif" font-size="14.00">profile_image :varchar</text>
<text text-anchor="start" x="901.5" y="-211.3" font-family="Times,serif" font-size="14.00">profile_url :varchar</text>
<text text-anchor="start" x="901.5" y="-196.3" font-family="Times,serif" font-size="14.00">user_id :integer</text>
<text text-anchor="start" x="901.5" y="-181.3" font-family="Times,serif" font-size="14.00">created_at :datetime</text>
<text text-anchor="start" x="901.5" y="-166.3" font-family="Times,serif" font-size="14.00">updated_at :datetime</text>
</g>
<!-- Follow&#45;&gt;HashtagFollow -->
<g id="edge4" class="edge"><title>Follow&#45;&gt;HashtagFollow</title>
<path fill="none" stroke="#c40c2f" d="M929.188,-151.09C923.707,-139.373 918.093,-127.374 912.768,-115.992"/>
<ellipse fill="none" stroke="#c40c2f" cx="930.916" cy="-154.784" rx="4.00002" ry="4.00002"/>
<polygon fill="#c40c2f" stroke="#c40c2f" points="912.61,-115.654 912.449,-104.69 910.491,-111.125 908.373,-106.597 908.373,-106.597 908.373,-106.597 910.491,-111.125 904.297,-108.504 912.61,-115.654 912.61,-115.654"/>
</g>
</g>
</svg>
