<?xml version="1.0" encoding="UTF-8" standalone="no"?>
<!DOCTYPE svg PUBLIC "-//W3C//DTD SVG 1.1//EN"
 "http://www.w3.org/Graphics/SVG/1.1/DTD/svg11.dtd">
<!-- Generated by graphviz version 2.38.0 (20140413.2041)
 -->
<!-- Title: models_diagram Pages: 1 -->
<svg width="1072pt" height="158pt"
 viewBox="0.00 0.00 1071.90 158.00" xmlns="http://www.w3.org/2000/svg" xmlns:xlink="http://www.w3.org/1999/xlink">
<g id="graph0" class="graph" transform="scale(1 1) rotate(0) translate(4 154)">
<title>models_diagram</title>
<polygon fill="none" stroke="none" points="-4,4 -4,-154 1067.9,-154 1067.9,4 -4,4"/>
<!-- _diagram_info -->
<g id="node1" class="node"><title>_diagram_info</title>
<text text-anchor="start" x="8" y="-135.6" font-family="Times,serif" font-size="13.00">Models diagram</text>
<text text-anchor="start" x="8" y="-121.6" font-family="Times,serif" font-size="13.00">Date: Apr 12 2019 &#45; 00:20</text>
<text text-anchor="start" x="8" y="-107.6" font-family="Times,serif" font-size="13.00">Migration version: 20190411230423</text>
<text text-anchor="start" x="8" y="-93.6" font-family="Times,serif" font-size="13.00">Generated by RailRoady 1.5.3</text>
<text text-anchor="start" x="8" y="-79.6" font-family="Times,serif" font-size="13.00">http://railroady.prestonlee.com</text>
</g>
<!-- Unfollow -->
<g id="node2" class="node"><title>Unfollow</title>
<ellipse fill="none" stroke="black" cx="276" cy="-111" rx="44.393" ry="18"/>
<text text-anchor="middle" x="276" y="-107.3" font-family="Times,serif" font-size="14.00">Unfollow</text>
</g>
<!-- HashtagMessage -->
<g id="node3" class="node"><title>HashtagMessage</title>
<ellipse fill="none" stroke="black" cx="380" cy="-18" rx="70.6878" ry="18"/>
<text text-anchor="middle" x="380" y="-14.3" font-family="Times,serif" font-size="14.00">HashtagMessage</text>
</g>
<!-- ApplicationRecord -->
<g id="node4" class="node"><title>ApplicationRecord</title>
<ellipse fill="none" stroke="black" cx="518" cy="-111" rx="77.1866" ry="18"/>
<text text-anchor="middle" x="518" y="-107.3" font-family="Times,serif" font-size="14.00">ApplicationRecord</text>
</g>
<!-- Comment -->
<g id="node5" class="node"><title>Comment</title>
<ellipse fill="none" stroke="black" cx="659" cy="-111" rx="46.2923" ry="18"/>
<text text-anchor="middle" x="659" y="-107.3" font-family="Times,serif" font-size="14.00">Comment</text>
</g>
<!-- HashtagFollow -->
<g id="node6" class="node"><title>HashtagFollow</title>
<ellipse fill="none" stroke="black" cx="709" cy="-18" rx="64.189" ry="18"/>
<text text-anchor="middle" x="709" y="-14.3" font-family="Times,serif" font-size="14.00">HashtagFollow</text>
</g>
<!-- Comment&#45;&gt;HashtagFollow -->
<g id="edge1" class="edge"><title>Comment&#45;&gt;HashtagFollow</title>
<path fill="none" stroke="#f7c602" d="M672.201,-85.9739C679.172,-73.2861 687.732,-57.7074 694.841,-44.7688"/>
<ellipse fill="none" stroke="#f7c602" cx="670.097" cy="-89.8035" rx="4.00002" ry="4.00002"/>
<polygon fill="#f7c602" stroke="#f7c602" points="694.903,-44.6574 703.662,-38.0602 697.31,-40.2753 699.718,-35.8932 699.718,-35.8932 699.718,-35.8932 697.31,-40.2753 695.774,-33.7262 694.903,-44.6574 694.903,-44.6574"/>
</g>
<!-- Message -->
<g id="node7" class="node"><title>Message</title>
<ellipse fill="none" stroke="black" cx="380" cy="-111" rx="42.4939" ry="18"/>
<text text-anchor="middle" x="380" y="-107.3" font-family="Times,serif" font-size="14.00">Message</text>
</g>
<!-- Message&#45;&gt;HashtagMessage -->
<g id="edge2" class="edge"><title>Message&#45;&gt;HashtagMessage</title>
<path fill="none" stroke="#3f1d13" d="M380,-84.7285C380,-72.7246 380,-58.3622 380,-46.1291"/>
<ellipse fill="none" stroke="#3f1d13" cx="380" cy="-88.8836" rx="4" ry="4"/>
<polygon fill="#3f1d13" stroke="#3f1d13" points="380,-46.0397 384.5,-36.0396 380,-41.0397 380,-36.0397 380,-36.0397 380,-36.0397 380,-41.0397 375.5,-36.0397 380,-46.0397 380,-46.0397"/>
</g>
<!-- HashtagComment -->
<g id="node8" class="node"><title>HashtagComment</title>
<ellipse fill="none" stroke="black" cx="888" cy="-111" rx="75.2868" ry="18"/>
<text text-anchor="middle" x="888" y="-107.3" font-family="Times,serif" font-size="14.00">HashtagComment</text>
</g>
<!-- Like -->
<g id="node9" class="node"><title>Like</title>
<ellipse fill="none" stroke="black" cx="1008" cy="-111" rx="27" ry="18"/>
<text text-anchor="middle" x="1008" y="-107.3" font-family="Times,serif" font-size="14.00">Like</text>
</g>
<!-- HashtagLike -->
<g id="node11" class="node"><title>HashtagLike</title>
<ellipse fill="none" stroke="black" cx="1008" cy="-18" rx="55.7903" ry="18"/>
<text text-anchor="middle" x="1008" y="-14.3" font-family="Times,serif" font-size="14.00">HashtagLike</text>
</g>
<!-- Like&#45;&gt;HashtagLike -->
<g id="edge3" class="edge"><title>Like&#45;&gt;HashtagLike</title>
<path fill="none" stroke="#1e3efe" d="M1008,-84.7285C1008,-72.7246 1008,-58.3622 1008,-46.1291"/>
<ellipse fill="none" stroke="#1e3efe" cx="1008" cy="-88.8836" rx="4" ry="4"/>
<polygon fill="#1e3efe" stroke="#1e3efe" points="1008,-46.0397 1012.5,-36.0396 1008,-41.0397 1008,-36.0397 1008,-36.0397 1008,-36.0397 1008,-41.0397 1003.5,-36.0397 1008,-46.0397 1008,-46.0397"/>
</g>
<!-- Follow -->
<g id="node10" class="node"><title>Follow</title>
<ellipse fill="none" stroke="black" cx="759" cy="-111" rx="35.9954" ry="18"/>
<text text-anchor="middle" x="759" y="-107.3" font-family="Times,serif" font-size="14.00">Follow</text>
</g>
<!-- Follow&#45;&gt;HashtagFollow -->
<g id="edge4" class="edge"><title>Follow&#45;&gt;HashtagFollow</title>
<path fill="none" stroke="#9cea6c" d="M745.799,-85.9739C738.828,-73.2861 730.268,-57.7074 723.159,-44.7688"/>
<ellipse fill="none" stroke="#9cea6c" cx="747.903" cy="-89.8035" rx="4.00002" ry="4.00002"/>
<polygon fill="#9cea6c" stroke="#9cea6c" points="723.097,-44.6574 722.226,-33.7262 720.69,-40.2753 718.282,-35.8932 718.282,-35.8932 718.282,-35.8932 720.69,-40.2753 714.338,-38.0602 723.097,-44.6574 723.097,-44.6574"/>
</g>
</g>
</svg>
